<?xml version="1.0" standalone="no"?>
<!DOCTYPE svg PUBLIC "-//W3C//DTD SVG 20010904//EN"
 "http://www.w3.org/TR/2001/REC-SVG-20010904/DTD/svg10.dtd">
<svg version="1.0" xmlns="http://www.w3.org/2000/svg"
 width="700.000000pt" height="700.000000pt" viewBox="0 0 700.000000 700.000000"
 preserveAspectRatio="xMidYMid meet">
<metadata>
Created by potrace 1.14, written by Peter Selinger 2001-2017
</metadata>
<g transform="translate(0.000000,700.000000) scale(0.100000,-0.100000)"
fill="#000000" stroke="none">
<path d="M3220 6994 c-182 -20 -243 -29 -360 -50 -923 -167 -1761 -723 -2283
-1516 -300 -455 -470 -911 -554 -1483 -25 -173 -25 -717 0 -890 61 -418 167
-765 338 -1108 174 -351 386 -645 663 -922 294 -293 581 -497 958 -680 339
-164 635 -254 1035 -316 177 -27 586 -37 783 -20 829 74 1589 428 2175 1015
580 582 923 1304 1011 2128 22 213 15 635 -15 831 -122 791 -449 1446 -996
1992 -550 551 -1237 891 -2020 1001 -114 15 -640 29 -735 18z m-1049 -1982
l650 -428 101 22 c363 82 821 78 1190 -10 l57 -13 651 430 c358 236 653 427
655 425 7 -7 -14 -273 -36 -463 -49 -426 -145 -870 -256 -1181 -27 -76 -28
-84 -16 -130 57 -215 59 -510 7 -791 -7 -39 -7 -39 96 -13 150 38 314 61 477
67 124 5 166 3 178 -7 21 -17 19 -67 -2 -78 -10 -5 -90 -12 -178 -15 -110 -4
-202 -13 -295 -31 -118 -22 -306 -69 -315 -78 -2 -2 -14 -32 -28 -68 -14 -36
-28 -74 -33 -84 -7 -18 -3 -19 87 -13 114 8 450 -8 603 -29 125 -17 280 -52
377 -85 80 -27 211 -94 234 -119 20 -22 14 -67 -11 -77 -8 -3 -65 20 -127 51
-220 110 -558 167 -997 165 -211 0 -215 -1 -256 -75 l-35 -62 68 -11 c303 -52
599 -180 887 -384 158 -111 174 -131 139 -169 -24 -27 -39 -23 -112 31 -306
224 -576 352 -866 410 -177 35 -160 40 -250 -68 -519 -618 -1429 -766 -2154
-352 -169 97 -354 253 -499 420 l-29 35 -89 -14 c-332 -49 -622 -174 -941
-406 -56 -41 -111 -74 -122 -74 -24 0 -47 40 -38 64 8 20 166 137 293 217 123
78 329 178 453 219 96 33 301 80 346 80 33 0 32 9 -9 73 -32 50 -38 55 -82 61
-114 15 -529 -2 -724 -30 -215 -31 -413 -90 -513 -154 -57 -36 -81 -38 -102
-6 -22 33 -11 51 54 91 116 73 304 130 541 165 171 25 502 43 634 34 59 -4 97
-3 95 2 -2 5 -17 42 -33 82 -16 40 -37 77 -46 82 -31 16 -257 70 -383 90 -76
12 -177 21 -254 21 -70 1 -136 5 -145 10 -21 11 -24 59 -6 77 15 15 192 16
326 1 78 -8 265 -42 421 -77 20 -4 22 -2 17 15 -18 57 -37 172 -46 286 -13
149 -2 320 31 475 l21 99 -46 139 c-97 296 -164 591 -216 949 -30 211 -67 635
-55 635 3 0 299 -193 656 -428z"/>
</g>
</svg>
